<?xml version="1.0" standalone="no"?>
<!DOCTYPE svg PUBLIC "-//W3C//DTD SVG 20010904//EN"
 "http://www.w3.org/TR/2001/REC-SVG-20010904/DTD/svg10.dtd">
<svg version="1.0" xmlns="http://www.w3.org/2000/svg"
 width="720.000000pt" height="177.000000pt" viewBox="0 0 720.000000 177.000000"
 preserveAspectRatio="xMidYMid meet">

<g transform="translate(0.000000,177.000000) scale(0.100000,-0.100000)"
fill="#000000" stroke="none">
<path d="M1642 1239 c-208 -103 -352 -457 -263 -643 31 -63 71 -89 143 -94 80
-6 139 18 210 85 l56 54 7 -31 c21 -98 152 -66 215 53 l24 44 23 -27 c27 -33
62 -44 97 -30 19 7 24 6 20 -4 -7 -18 13 -67 34 -82 9 -8 26 -14 36 -14 36 0
104 50 151 112 35 47 45 55 39 34 -11 -47 -9 -103 5 -120 16 -19 72 -21 104
-5 12 6 36 25 54 42 l32 30 6 -26 c4 -14 18 -36 32 -49 32 -30 119 -32 175 -5
63 32 148 127 148 166 0 8 -18 -10 -39 -40 -51 -72 -108 -111 -170 -117 -43
-4 -50 -1 -69 23 -12 15 -22 41 -22 56 0 23 5 30 28 35 67 14 119 40 163 84
45 42 49 50 49 93 0 37 -4 49 -21 57 -31 17 -95 2 -142 -34 -50 -38 -114 -126
-127 -176 -10 -36 -56 -88 -98 -109 -60 -31 -67 56 -17 206 15 42 62 154 106
248 79 171 92 215 64 215 -36 0 -87 -93 -185 -339 -67 -170 -106 -238 -168
-293 -94 -85 -132 -16 -65 117 44 89 126 155 174 140 13 -4 19 -2 19 8 0 20
-34 27 -74 16 -72 -20 -148 -95 -202 -201 -28 -56 -56 -68 -93 -41 -32 25 -39
78 -17 134 24 59 21 76 -19 95 -51 24 -94 12 -154 -42 -35 -31 -62 -70 -88
-122 -103 -210 -303 -282 -373 -136 -20 40 -22 56 -17 137 13 231 190 505 317
495 30 -3 35 -7 38 -32 5 -43 -4 -69 -52 -140 -37 -55 -42 -67 -29 -77 37 -31
114 84 121 182 4 51 2 58 -23 77 -39 31 -90 28 -163 -9z m1246 -371 c2 -19 -7
-38 -32 -65 -36 -40 -133 -100 -143 -89 -17 17 64 138 112 168 39 24 59 19 63
-14z m-862 -10 c-3 -13 -6 -48 -6 -79 0 -47 -5 -65 -32 -105 -36 -53 -86 -88
-112 -78 -40 15 -26 106 30 192 49 74 135 124 120 70z"/>
<path d="M3425 1254 c-49 -25 -115 -96 -127 -136 -9 -31 -8 -41 6 -63 25 -38
46 -32 46 14 0 74 60 171 105 171 13 0 26 -4 29 -9 6 -9 -111 -367 -194 -594
-24 -64 -41 -120 -38 -122 3 -3 19 0 36 6 22 7 34 20 41 42 5 18 26 86 47 152
20 66 39 124 41 128 3 5 25 -27 48 -71 90 -169 175 -272 223 -272 61 0 55 19
-33 106 -76 76 -206 252 -204 278 0 6 37 37 82 68 102 71 209 167 237 213 14
23 20 47 18 72 l-3 37 -26 -40 c-35 -52 -149 -167 -242 -243 l-75 -61 34 108
c53 164 60 198 44 217 -16 19 -57 19 -95 -1z"/>
<path d="M4815 1227 c-57 -60 -138 -222 -191 -385 -67 -202 -114 -261 -219
-270 -49 -4 -54 -2 -70 22 -35 53 1 170 76 248 60 63 112 40 75 -34 -20 -39
-21 -38 9 -38 51 0 61 87 14 122 -20 15 -34 18 -65 12 -50 -9 -145 -102 -164
-159 -35 -110 -149 -197 -208 -159 -23 15 -24 20 -20 88 3 39 14 96 25 126 17
48 23 55 49 58 121 10 154 15 154 22 0 5 -39 6 -86 3 l-87 -6 68 127 c61 116
66 129 52 143 -14 14 -19 13 -47 -18 -17 -19 -54 -80 -82 -136 -37 -76 -56
-103 -69 -103 -11 0 -19 -4 -19 -10 0 -5 7 -10 15 -10 19 0 20 3 -11 -97 -31
-97 -87 -170 -139 -178 -77 -14 -81 57 -12 191 26 49 47 95 47 101 0 21 -21
25 -46 8 -49 -32 -125 -232 -107 -282 27 -76 131 -69 203 13 l30 35 0 -34 c0
-52 33 -87 81 -87 50 0 92 21 145 72 l41 40 7 -36 c4 -21 19 -45 37 -60 59
-50 155 -25 237 62 39 42 42 43 42 20 0 -44 20 -88 41 -88 20 0 45 41 79 132
28 75 75 130 109 126 33 -4 38 -41 17 -126 -20 -76 -20 -78 4 -102 37 -37 97
-24 158 33 24 24 32 27 32 14 0 -9 12 -31 28 -47 54 -62 162 -47 249 33 42 39
43 39 33 12 -13 -35 -7 -55 19 -55 13 0 33 23 64 73 75 119 153 182 192 153
15 -11 17 -22 11 -62 -20 -145 -20 -141 7 -159 53 -34 136 14 183 107 34 67
17 59 -28 -13 -74 -118 -155 -96 -103 28 19 46 19 113 -1 141 -37 53 -136 13
-204 -82 -36 -50 -46 -54 -30 -12 14 39 13 93 -4 99 -23 9 -56 -22 -56 -51 -1
-64 -74 -162 -152 -204 -38 -21 -97 -23 -122 -5 -9 7 -20 31 -23 54 -5 40 -4
42 23 48 66 15 119 41 161 79 38 34 46 48 50 87 9 78 -38 100 -124 58 -58 -28
-119 -99 -158 -184 -31 -67 -81 -125 -117 -138 -9 -3 -24 0 -34 8 -17 12 -17
16 5 86 29 93 26 145 -10 172 -58 43 -133 -10 -194 -138 -20 -41 -39 -75 -41
-75 -6 0 3 78 17 141 8 36 24 60 78 115 108 111 183 283 152 350 -15 34 -28
30 -76 -19z m51 -64 c-18 -79 -153 -297 -164 -265 -2 6 15 49 36 96 67 142
146 247 128 169z m412 -295 c4 -37 -51 -96 -128 -137 -33 -18 -60 -29 -60 -26
0 12 43 91 67 123 29 38 81 73 103 70 8 -2 16 -15 18 -30z"/>
<path d="M3926 1058 c-34 -29 -27 -58 13 -58 39 0 64 21 59 51 -4 33 -39 36
-72 7z"/>
</g>
</svg>
